<?xml version="1.0" encoding="UTF-8"?>
<svg width="1329px" height="500px" viewBox="0 0 1329 500" version="1.1" xmlns="http://www.w3.org/2000/svg" xmlns:xlink="http://www.w3.org/1999/xlink">
    <title>Artboard</title>
    <g id="Artboard" stroke="none" stroke-width="1" fill="none" fill-rule="evenodd">
        <rect fill="#000000" x="0" y="0" width="1329" height="500"></rect>
        <g id="Group-3" transform="translate(905.000000, 120.000000)">
            <g id="Group-2" fill="#FFFFFF">
                <path d="M0,199.534884 C0,166.140922 44.1078336,149.254896 49.5494124,155.677434 C50.132792,156.36598 51.0288715,157.619936 52.2534752,159.287752 C30.9806293,165.459221 15.8830625,181.01752 15.8830625,199.23541 C15.8830625,222.863213 41.2786045,242.017332 72.6055932,242.017332 C102.19807,242.017332 126.497741,224.925543 129.097869,203.116445 C138.559956,203.418513 148.957605,202.380708 160.336441,199.534884 C233.033668,181.353449 124.444075,260 80.1685972,260 C35.8931199,260 0,232.928845 0,199.534884 Z" id="Combined-Shape"></path>
                <polygon id="Rectangle" points="80.1685972 0 140.613106 42.3255814 108.151712 234.302326 80.1685972 234.302326"></polygon>
                <polygon id="Rectangle" points="209.487635 42.3255814 270 0 270 234.302326 242.016885 234.302326"></polygon>
                <path d="M80.1685972,42.3255814 L270,42.3255814 L270,252.44186 C270,256.616106 266.616106,260 262.44186,260 L87.7267368,260 C83.5524916,260 80.1685972,256.616106 80.1685972,252.44186 L80.1685972,42.3255814 L80.1685972,42.3255814 Z" id="Rectangle"></path>
                <g id="Group" transform="translate(92.269404, 86.918605)">
                    <path d="M3.77906977,0 L70.3383704,0 C72.425493,-7.35425801e-15 74.1174401,1.69194717 74.1174401,3.77906977 L74.1174401,34.0116279 L74.1174401,34.0116279 L0,34.0116279 L0,3.77906977 C-6.99688011e-16,1.69194717 1.69194717,-5.04780218e-16 3.77906977,0 Z" id="Rectangle"></path>
                    <ellipse id="Oval" cx="37.0587201" cy="33.6337209" rx="37.0587201" ry="13.9825581"></ellipse>
                </g>
                <g id="Group" transform="translate(185.294354, 86.918605)">
                    <path d="M3.77906977,0 L70.3383704,0 C72.425493,-3.83398202e-16 74.1174401,1.69194717 74.1174401,3.77906977 L74.1174401,34.0116279 L74.1174401,34.0116279 L0,34.0116279 L0,3.77906977 C-6.99688011e-16,1.69194717 1.69194717,-9.48869428e-16 3.77906977,0 Z" id="Rectangle"></path>
                    <ellipse id="Oval" cx="37.0587201" cy="33.6337209" rx="37.0587201" ry="13.9825581"></ellipse>
                </g>
                <ellipse id="Oval" cx="175.084299" cy="42.7034884" rx="44.2435739" ry="6.4244186"></ellipse>
            </g>
            <path d="M0,199.534884 C0,166.140922 44.1078336,149.254896 49.5494124,155.677434 C50.132792,156.36598 51.0288715,157.619936 52.2534752,159.287752 C30.9806293,165.459221 15.8830625,181.01752 15.8830625,199.23541 C15.8830625,222.863213 41.2786045,242.017332 72.6055932,242.017332 C102.19807,242.017332 126.497741,224.925543 129.097869,203.116445 C138.559956,203.418513 148.957605,202.380708 160.336441,199.534884 C233.033668,181.353449 124.444075,260 80.1685972,260 C35.8931199,260 0,232.928845 0,199.534884 Z" id="Combined-Shape" fill="#FFFFFF"></path>
            <polygon id="Rectangle" fill="#FFFFFF" points="80.1685972 0 140.613106 42.3255814 108.151712 234.302326 80.1685972 234.302326"></polygon>
            <polygon id="Rectangle" fill="#FFFFFF" points="209.487635 42.3255814 270 0 270 234.302326 242.016885 234.302326"></polygon>
            <path d="M80.1685972,42.3255814 L270,42.3255814 L270,252.44186 C270,256.616106 266.616106,260 262.44186,260 L87.7267368,260 C83.5524916,260 80.1685972,256.616106 80.1685972,252.44186 L80.1685972,42.3255814 L80.1685972,42.3255814 Z" id="Rectangle" fill="#FFFFFF"></path>
            <g id="Group" transform="translate(92.269404, 86.918605)" fill="#000000">
                <path d="M3.77906977,0 L70.3383704,0 C72.425493,-7.35425801e-15 74.1174401,1.69194717 74.1174401,3.77906977 L74.1174401,34.0116279 L74.1174401,34.0116279 L0,34.0116279 L0,3.77906977 C-6.99688011e-16,1.69194717 1.69194717,-5.04780218e-16 3.77906977,0 Z" id="Rectangle"></path>
                <ellipse id="Oval" cx="37.0587201" cy="33.6337209" rx="37.0587201" ry="13.9825581"></ellipse>
            </g>
            <g id="Group" transform="translate(185.294354, 86.918605)" fill="#000000">
                <path d="M3.77906977,0 L70.3383704,0 C72.425493,-3.83398202e-16 74.1174401,1.69194717 74.1174401,3.77906977 L74.1174401,34.0116279 L74.1174401,34.0116279 L0,34.0116279 L0,3.77906977 C-6.99688011e-16,1.69194717 1.69194717,-9.48869428e-16 3.77906977,0 Z" id="Rectangle"></path>
                <ellipse id="Oval" cx="37.0587201" cy="33.6337209" rx="37.0587201" ry="13.9825581"></ellipse>
            </g>
            <ellipse id="Oval" fill="#FFFFFF" cx="175.084299" cy="42.7034884" rx="44.2435739" ry="6.4244186"></ellipse>
        </g>
        <rect id="Rectangle" fill="#FFFFFF" x="111" y="120" width="289" height="70" rx="5"></rect>
        <rect id="Rectangle" fill="#FFFFFF" x="111" y="207" width="289" height="70" rx="5"></rect>
        <rect id="Rectangle" fill="#FFFFFF" x="111" y="294" width="289" height="70" rx="5"></rect>
        <text id="∞" font-family="PingFangSC-Light, PingFang SC" font-size="200" font-weight="300" fill="#FFFFFF">
            <tspan x="567" y="322">∞</tspan>
        </text>
        <rect id="Rectangle" fill="#000000" x="285" y="155" width="91" height="15"></rect>
        <circle id="Oval" fill="#000000" cx="141.5" cy="136.5" r="7.5"></circle>
        <circle id="Oval" fill="#000000" cx="169.5" cy="136.5" r="7.5"></circle>
    </g>
</svg>